# Tiled2Unity generated file. Do not modify by hand.
# Wavefront file for 'TestRoom24x24_mesh_0003.obj'

# Vertices (Count = 16)
v -27 -21 0
v -28 -21 0
v -28 -20 0
v -27 -20 0
v -31 -21 0
v -32 -21 0
v -32 -20 0
v -31 -20 0
v -28 -24 0
v -29 -24 0
v -29 -23 0
v -28 -23 0
v -31 -24 0
v -32 -24 0
v -32 -23 0
v -31 -23 0

# Texture cooridinates (Count = 4)
vt 0.4 0.9
vt 0.5 0.9
vt 0.5 1
vt 0.4 1

# Normal
vn 0 0 -1

# Mesh description
g TestRoom24x24_mesh_0003

# Faces
f 1/1/1 2/2/1 3/3/1 4/4/1
f 5/1/1 6/2/1 7/3/1 8/4/1
f 9/1/1 10/2/1 11/3/1 12/4/1
f 13/1/1 14/2/1 15/3/1 16/4/1

